<?xml version="1.0" standalone="no"?>
<!DOCTYPE svg PUBLIC "-//W3C//DTD SVG 20010904//EN"
 "http://www.w3.org/TR/2001/REC-SVG-20010904/DTD/svg10.dtd">
<svg version="1.0" xmlns="http://www.w3.org/2000/svg"
 width="16.000000pt" height="16.000000pt" viewBox="0 0 16.000000 16.000000"
 preserveAspectRatio="xMidYMid meet">

<g transform="translate(0.000000,16.000000) scale(0.100000,-0.100000)"
fill="#000000" stroke="none">
<path d="M60 150 c0 -5 -5 -9 -12 -7 -13 2 -38 -39 -38 -63 0 -24 25 -65 38
-62 7 1 12 -2 12 -8 0 -5 9 -10 20 -10 11 0 20 5 20 10 0 6 5 9 12 8 13 -3 38
38 38 62 0 24 -25 65 -38 63 -7 -2 -12 2 -12 7 0 6 -9 10 -20 10 -11 0 -20 -4
-20 -10z m36 -61 c10 -17 -13 -36 -27 -22 -12 12 -4 33 11 33 5 0 12 -5 16
-11z"/>
</g>
</svg>
