<?xml version="1.0" standalone="no"?>
<!DOCTYPE svg PUBLIC "-//W3C//DTD SVG 20010904//EN"
 "http://www.w3.org/TR/2001/REC-SVG-20010904/DTD/svg10.dtd">
<svg version="1.0" xmlns="http://www.w3.org/2000/svg"
 width="64.000000pt" height="64.000000pt" viewBox="0 0 64.000000 64.000000"
 preserveAspectRatio="xMidYMid meet">

<g transform="translate(0.000000,64.000000) scale(0.100000,-0.100000)"
fill="#000000" stroke="none">
<path d="M240 600 c0 -46 -13 -51 -47 -18 l-23 21 -26 -24 c-14 -13 -40 -41
-56 -62 l-31 -38 22 -23 c30 -32 26 -46 -14 -46 l-35 0 0 -90 0 -90 35 0 c40
0 44 -14 14 -46 l-22 -23 31 -38 c16 -21 42 -49 56 -62 l26 -24 23 21 c34 33
47 28 47 -18 l0 -40 80 0 80 0 0 40 c0 46 13 51 47 18 l23 -21 26 24 c14 13
40 41 56 62 l31 38 -22 23 c-30 32 -26 46 14 46 l35 0 0 90 0 90 -35 0 c-40 0
-44 14 -14 46 l22 23 -31 38 c-16 21 -42 49 -56 62 l-26 24 -23 -21 c-34 -33
-47 -28 -47 18 l0 40 -80 0 -80 0 0 -40z m130 -220 c29 -29 34 -63 16 -99 -29
-54 -103 -54 -132 0 -28 55 8 119 66 119 17 0 39 -9 50 -20z"/>
</g>
</svg>
